<mxfile host="app.diagrams.net" modified="2023-12-04T14:45:10.340Z" agent="Mozilla/5.0 (Windows NT 10.0; Win64; x64) AppleWebKit/537.36 (KHTML, like Gecko) Chrome/119.0.0.0 Safari/537.36" version="22.1.5" etag="q7hY_v_dfyiJxEqSNUvg" type="github">
  <diagram name="PÃ¡gina-1" id="TVfnKYOd6kjSJN-Gmg41">
    <mxGraphModel>
      <root>
        <mxCell id="0" />
        <mxCell id="1" parent="0" />
      </root>
    </mxGraphModel>
  </diagram>
</mxfile>
